<?xml version="1.0" encoding="UTF-8"?>
<svg xmlns="http://www.w3.org/2000/svg" xmlns:xlink="http://www.w3.org/1999/xlink" width="499px" height="85px" viewBox="0 0 496 85" version="1.1">
<g id="surface1">
<path style=" stroke:none;fill-rule:nonzero;fill:rgb(0%,0%,0%);fill-opacity:1;" d="M 4.148438 4.945312 L 0.113281 3.984375 L 0.675781 0.648438 L 15.359375 0.648438 L 32.074219 31.761719 L 32.523438 31.761719 L 32.523438 4.945312 L 28.460938 3.984375 L 29.023438 0.648438 L 41.644531 0.648438 L 42.207031 3.984375 L 38.199219 4.945312 L 38.199219 38.882812 L 26.933594 38.882812 L 10.25 7.800781 L 9.796875 7.800781 L 9.796875 34.585938 L 14.371094 35.546875 L 13.804688 38.882812 L 0.675781 38.882812 L 0.113281 35.546875 L 4.148438 34.585938 Z M 62.421875 39.503906 C 56.71875 39.503906 52.429688 38.214844 49.550781 35.632812 C 46.667969 33.050781 45.230469 29.191406 45.230469 24.046875 L 45.230469 21.816406 C 45.230469 14.394531 46.792969 8.910156 49.917969 5.367188 C 53.039062 1.808594 57.578125 0.0273438 63.523438 0.0273438 C 69.207031 0.0273438 73.507812 1.320312 76.425781 3.898438 C 79.363281 6.480469 80.832031 10.351562 80.832031 15.511719 L 80.832031 17.71875 C 80.832031 24.96875 79.296875 30.414062 76.230469 34.050781 C 73.160156 37.6875 68.558594 39.503906 62.421875 39.503906 Z M 72.363281 16.757812 C 72.363281 12.667969 71.523438 9.5625 69.847656 7.433594 C 68.191406 5.304688 65.734375 4.238281 62.480469 4.238281 C 61.066406 4.238281 59.722656 4.425781 58.441406 4.804688 C 57.179688 5.179688 56.15625 5.632812 55.363281 6.160156 C 55.027344 7.367188 54.660156 9.183594 54.265625 11.613281 C 53.886719 14.042969 53.699219 16.511719 53.699219 19.015625 L 53.699219 22.777344 C 53.699219 26.714844 54.613281 29.785156 56.4375 31.988281 C 58.28125 34.191406 60.671875 35.292969 63.609375 35.292969 C 65.113281 35.292969 66.515625 35.085938 67.816406 34.671875 C 69.132812 34.257812 70.101562 33.816406 70.722656 33.34375 C 71.121094 31.929688 71.488281 30.019531 71.824219 27.609375 C 72.183594 25.179688 72.363281 22.8125 72.363281 20.515625 Z M 96.105469 4.011719 L 92.066406 4.777344 L 100.679688 30.347656 L 101.132812 30.347656 L 109.714844 4.804688 L 105.675781 4.011719 L 106.242188 0.648438 L 117.621094 0.648438 L 118.183594 4.011719 L 115.503906 4.859375 L 103.558594 38.882812 L 95.34375 38.882812 L 83.371094 4.859375 L 80.691406 4.011719 L 81.253906 0.648438 L 95.539062 0.648438 Z M 136.5625 39.503906 C 130.859375 39.503906 126.570312 38.214844 123.6875 35.632812 C 120.808594 33.050781 119.371094 29.191406 119.371094 24.046875 L 119.371094 21.816406 C 119.371094 14.394531 120.933594 8.910156 124.054688 5.367188 C 127.179688 1.808594 131.71875 0.0273438 137.664062 0.0273438 C 143.347656 0.0273438 147.648438 1.320312 150.566406 3.898438 C 153.503906 6.480469 154.972656 10.351562 154.972656 15.511719 L 154.972656 17.71875 C 154.972656 24.96875 153.4375 30.414062 150.371094 34.050781 C 147.300781 37.6875 142.699219 39.503906 136.5625 39.503906 Z M 146.5 16.757812 C 146.5 12.667969 145.664062 9.5625 143.988281 7.433594 C 142.332031 5.304688 139.875 4.238281 136.621094 4.238281 C 135.207031 4.238281 133.863281 4.425781 132.582031 4.804688 C 131.320312 5.179688 130.296875 5.632812 129.503906 6.160156 C 129.167969 7.367188 128.800781 9.183594 128.40625 11.613281 C 128.027344 14.042969 127.839844 16.511719 127.839844 19.015625 L 127.839844 22.777344 C 127.839844 26.714844 128.753906 29.785156 130.578125 31.988281 C 132.421875 34.191406 134.8125 35.292969 137.75 35.292969 C 139.253906 35.292969 140.65625 35.085938 141.957031 34.671875 C 143.273438 34.257812 144.242188 33.816406 144.863281 33.34375 C 145.257812 31.929688 145.628906 30.019531 145.964844 27.609375 C 146.324219 25.179688 146.5 22.8125 146.5 20.515625 Z M 178.121094 4.945312 L 174.085938 3.984375 L 174.648438 0.648438 L 190.039062 0.648438 L 190.601562 3.984375 L 186.59375 4.945312 L 186.59375 16.617188 L 201.386719 16.617188 L 201.386719 4.945312 L 197.378906 3.984375 L 197.941406 0.648438 L 213.359375 0.648438 L 213.921875 3.984375 L 209.855469 4.945312 L 209.855469 34.585938 L 213.921875 35.546875 L 213.359375 38.882812 L 197.941406 38.882812 L 197.378906 35.546875 L 201.386719 34.585938 L 201.386719 20.824219 L 186.59375 20.824219 L 186.59375 34.585938 L 190.601562 35.546875 L 190.039062 38.882812 L 174.648438 38.882812 L 174.085938 35.546875 L 178.121094 34.585938 Z M 235.378906 39.503906 C 229.675781 39.503906 225.386719 38.214844 222.503906 35.632812 C 219.625 33.050781 218.1875 29.191406 218.1875 24.046875 L 218.1875 21.816406 C 218.1875 14.394531 219.746094 8.910156 222.871094 5.367188 C 225.996094 1.808594 230.535156 0.0273438 236.480469 0.0273438 C 242.164062 0.0273438 246.464844 1.320312 249.382812 3.898438 C 252.320312 6.480469 253.789062 10.351562 253.789062 15.511719 L 253.789062 17.71875 C 253.789062 24.96875 252.253906 30.414062 249.183594 34.050781 C 246.117188 37.6875 241.515625 39.503906 235.378906 39.503906 Z M 245.316406 16.757812 C 245.316406 12.667969 244.480469 9.5625 242.804688 7.433594 C 241.148438 5.304688 238.691406 4.238281 235.4375 4.238281 C 234.023438 4.238281 232.679688 4.425781 231.398438 4.804688 C 230.136719 5.179688 229.113281 5.632812 228.320312 6.160156 C 227.984375 7.367188 227.617188 9.183594 227.21875 11.613281 C 226.84375 14.042969 226.65625 16.511719 226.65625 19.015625 L 226.65625 22.777344 C 226.65625 26.714844 227.566406 29.785156 229.394531 31.988281 C 231.238281 34.191406 233.628906 35.292969 236.566406 35.292969 C 238.070312 35.292969 239.472656 35.085938 240.773438 34.671875 C 242.089844 34.257812 243.058594 33.816406 243.679688 33.34375 C 244.074219 31.929688 244.441406 30.019531 244.78125 27.609375 C 245.140625 25.179688 245.316406 22.8125 245.316406 20.515625 Z M 261.523438 4.945312 L 257.488281 3.984375 L 258.050781 0.648438 L 273.832031 0.648438 C 278.066406 0.648438 281.34375 1.527344 283.660156 3.277344 C 285.972656 5.011719 287.128906 7.582031 287.128906 10.992188 C 287.128906 13.253906 286.59375 15.195312 285.523438 16.8125 C 284.449219 18.414062 282.878906 19.707031 280.804688 20.683594 L 280.636719 21.222656 L 287.753906 34.558594 L 291.226562 35.546875 L 290.660156 38.882812 L 281.9375 38.882812 L 273.183594 22.183594 L 269.992188 22.183594 L 269.992188 34.585938 L 274.003906 35.546875 L 273.4375 38.882812 L 258.050781 38.882812 L 257.488281 35.546875 L 261.523438 34.585938 Z M 269.992188 4.859375 L 269.992188 17.972656 L 272.054688 17.972656 C 273.371094 17.972656 274.519531 17.90625 275.5 17.773438 C 276.476562 17.640625 277.25 17.453125 277.8125 17.210938 C 278.039062 16.4375 278.21875 15.550781 278.351562 14.554688 C 278.484375 13.535156 278.546875 12.519531 278.546875 11.5 C 278.546875 8.9375 277.964844 7.195312 276.796875 6.273438 C 275.628906 5.332031 273.84375 4.859375 271.433594 4.859375 Z M 297.664062 4.945312 L 293.625 3.984375 L 294.1875 0.648438 L 309.578125 0.648438 L 310.140625 3.984375 L 306.132812 4.945312 L 306.132812 34.585938 L 310.140625 35.546875 L 309.578125 38.882812 L 294.1875 38.882812 L 293.625 35.546875 L 297.664062 34.585938 Z M 342.890625 0.648438 L 342.890625 4.71875 L 323.242188 34.277344 L 323.382812 34.671875 L 336.992188 34.671875 L 339.304688 29.21875 L 343.625 29.839844 L 342.949219 38.882812 L 313.386719 38.882812 L 313.386719 34.785156 L 333.011719 5.257812 L 332.871094 4.859375 L 320.417969 4.859375 L 318.101562 10.3125 L 313.753906 9.691406 L 314.460938 0.648438 Z M 364.519531 39.503906 C 358.816406 39.503906 354.523438 38.214844 351.644531 35.632812 C 348.765625 33.050781 347.324219 29.191406 347.324219 24.046875 L 347.324219 21.816406 C 347.324219 14.394531 348.886719 8.910156 352.011719 5.367188 C 355.136719 1.808594 359.671875 0.0273438 365.621094 0.0273438 C 371.304688 0.0273438 375.605469 1.320312 378.523438 3.898438 C 381.457031 6.480469 382.925781 10.351562 382.925781 15.511719 L 382.925781 17.71875 C 382.925781 24.96875 381.390625 30.414062 378.324219 34.050781 C 375.257812 37.6875 370.652344 39.503906 364.519531 39.503906 Z M 374.457031 16.757812 C 374.457031 12.667969 373.617188 9.5625 371.945312 7.433594 C 370.285156 5.304688 367.832031 4.238281 364.574219 4.238281 C 363.164062 4.238281 361.816406 4.425781 360.535156 4.804688 C 359.277344 5.179688 358.25 5.632812 357.460938 6.160156 C 357.121094 7.367188 356.753906 9.183594 356.359375 11.613281 C 355.984375 14.042969 355.792969 16.511719 355.792969 19.015625 L 355.792969 22.777344 C 355.792969 26.714844 356.707031 29.785156 358.53125 31.988281 C 360.378906 34.191406 362.765625 35.292969 365.703125 35.292969 C 367.210938 35.292969 368.613281 35.085938 369.910156 34.671875 C 371.226562 34.257812 372.199219 33.816406 372.820312 33.34375 C 373.214844 31.929688 373.582031 30.019531 373.917969 27.609375 C 374.277344 25.179688 374.457031 22.8125 374.457031 20.515625 Z M 390.605469 4.945312 L 386.566406 3.984375 L 387.132812 0.648438 L 401.8125 0.648438 L 418.527344 31.761719 L 418.980469 31.761719 L 418.980469 4.945312 L 414.914062 3.984375 L 415.480469 0.648438 L 428.097656 0.648438 L 428.664062 3.984375 L 424.65625 4.945312 L 424.65625 38.882812 L 413.390625 38.882812 L 396.703125 7.800781 L 396.253906 7.800781 L 396.253906 34.585938 L 400.824219 35.546875 L 400.261719 38.882812 L 387.132812 38.882812 L 386.566406 35.546875 L 390.605469 34.585938 Z M 442.074219 4.859375 L 435.441406 4.859375 L 433.6875 9.664062 L 429.484375 9.410156 L 429.90625 0.648438 L 462.710938 0.648438 L 463.109375 9.410156 L 458.929688 9.664062 L 457.152344 4.859375 L 450.546875 4.859375 L 450.546875 34.585938 L 454.582031 35.546875 L 454.015625 38.882812 L 438.601562 38.882812 L 438.039062 35.546875 L 442.074219 34.585938 Z M 477.847656 20.996094 L 477.847656 34.671875 L 489.167969 34.671875 L 491.511719 29.21875 L 495.292969 29.867188 L 494.617188 38.882812 L 465.902344 38.882812 L 465.339844 35.546875 L 469.375 34.585938 L 469.375 4.945312 L 465.339844 3.984375 L 465.902344 0.648438 L 493.769531 0.648438 L 494.445312 9.691406 L 490.691406 10.3125 L 488.347656 4.859375 L 477.847656 4.859375 L 477.847656 16.785156 L 485.949219 16.785156 L 486.910156 13.621094 L 490.269531 14.183594 L 490.269531 23.625 L 486.910156 24.1875 L 485.949219 20.996094 Z M 35.261719 50.15625 L 31.226562 49.195312 L 31.789062 45.863281 L 48.023438 45.863281 C 52.65625 45.863281 56.128906 46.710938 58.441406 48.40625 C 60.777344 50.101562 61.945312 52.605469 61.945312 55.921875 C 61.945312 59.484375 60.691406 62.289062 58.1875 64.34375 C 55.703125 66.378906 52.511719 67.394531 48.617188 67.394531 L 43.734375 67.394531 L 43.734375 79.800781 L 49.71875 80.761719 L 49.152344 84.097656 L 31.789062 84.097656 L 31.226562 80.761719 L 35.261719 79.800781 Z M 43.734375 50.074219 L 43.734375 63.183594 L 46.839844 63.183594 C 47.929688 63.183594 49.003906 63.109375 50.058594 62.957031 C 51.128906 62.789062 51.96875 62.601562 52.570312 62.394531 C 52.816406 61.660156 53.003906 60.773438 53.136719 59.738281 C 53.285156 58.703125 53.359375 57.703125 53.359375 56.742188 C 53.359375 54.480469 52.730469 52.804688 51.46875 51.710938 C 50.226562 50.621094 48.402344 50.074219 45.992188 50.074219 Z M 59.175781 80.761719 L 62 79.96875 L 74.226562 45.863281 L 81.648438 45.863281 L 93.59375 79.96875 L 96.386719 80.761719 L 95.824219 84.097656 L 81.875 84.097656 L 81.3125 80.761719 L 85.039062 79.96875 L 82.722656 73.1875 L 69.933594 73.1875 L 67.5625 79.96875 L 71.289062 80.761719 L 70.722656 84.097656 L 59.742188 84.097656 Z M 71.375 68.976562 L 81.3125 68.976562 L 76.625 55.1875 L 76.171875 55.1875 Z M 101.667969 50.15625 L 97.628906 49.195312 L 98.195312 45.863281 L 113.976562 45.863281 C 118.210938 45.863281 121.488281 46.738281 123.800781 48.492188 C 126.117188 50.222656 127.273438 52.796875 127.273438 56.203125 C 127.273438 58.464844 126.738281 60.40625 125.664062 62.027344 C 124.59375 63.628906 123.023438 64.917969 120.949219 65.898438 L 120.78125 66.433594 L 127.894531 79.773438 L 131.367188 80.761719 L 130.804688 84.097656 L 122.082031 84.097656 L 113.328125 67.394531 L 110.136719 67.394531 L 110.136719 79.800781 L 114.148438 80.761719 L 113.582031 84.097656 L 98.195312 84.097656 L 97.628906 80.761719 L 101.667969 79.800781 Z M 110.136719 50.074219 L 110.136719 63.183594 L 112.199219 63.183594 C 113.515625 63.183594 114.664062 63.117188 115.644531 62.988281 C 116.621094 62.855469 117.394531 62.667969 117.957031 62.421875 C 118.183594 61.648438 118.363281 60.765625 118.496094 59.765625 C 118.625 58.75 118.691406 57.730469 118.691406 56.714844 C 118.691406 54.152344 118.109375 52.410156 116.941406 51.484375 C 115.773438 50.542969 113.988281 50.074219 111.578125 50.074219 Z M 131.113281 80.761719 L 133.9375 79.96875 L 146.164062 45.863281 L 153.589844 45.863281 L 165.53125 79.96875 L 168.324219 80.761719 L 167.761719 84.097656 L 153.8125 84.097656 L 153.25 80.761719 L 156.976562 79.96875 L 154.660156 73.1875 L 141.871094 73.1875 L 139.5 79.96875 L 143.226562 80.761719 L 142.660156 84.097656 L 131.679688 84.097656 Z M 143.3125 68.976562 L 153.25 68.976562 L 148.5625 55.1875 L 148.113281 55.1875 Z M 201.867188 61.121094 C 206.214844 63.570312 209.207031 65.726562 210.84375 67.59375 C 212.5 69.4375 213.328125 71.691406 213.328125 74.347656 C 213.328125 77.644531 211.957031 80.195312 209.207031 82.003906 C 206.460938 83.8125 202.703125 84.71875 197.941406 84.71875 C 195.757812 84.71875 193.660156 84.558594 191.648438 84.238281 C 189.632812 83.917969 187.917969 83.484375 186.507812 82.9375 L 185.914062 75.054688 L 190.628906 74.347656 L 193 79.914062 C 193.773438 80.101562 194.621094 80.253906 195.542969 80.367188 C 196.484375 80.460938 197.425781 80.507812 198.367188 80.507812 C 199.363281 80.507812 200.363281 80.429688 201.359375 80.28125 C 202.355469 80.128906 203.242188 79.941406 204.011719 79.714844 C 204.238281 79.261719 204.4375 78.699219 204.605469 78.019531 C 204.773438 77.34375 204.859375 76.671875 204.859375 76.015625 C 204.859375 74.507812 204.265625 73.1875 203.082031 72.058594 C 201.894531 70.925781 199.730469 69.421875 196.585938 67.535156 C 191.789062 64.765625 188.71875 62.535156 187.382812 60.839844 C 186.046875 59.144531 185.371094 57.15625 185.351562 54.878906 C 185.351562 51.824219 186.675781 49.460938 189.332031 47.785156 C 192.003906 46.089844 195.683594 45.242188 200.371094 45.242188 C 202.269531 45.242188 204.136719 45.371094 205.960938 45.636719 C 207.804688 45.898438 209.441406 46.257812 210.875 46.710938 L 211.464844 54.90625 L 207.089844 55.527344 L 204.746094 49.960938 C 204.011719 49.789062 203.222656 49.667969 202.375 49.59375 C 201.546875 49.5 200.726562 49.453125 199.917969 49.453125 C 198.976562 49.453125 198.035156 49.515625 197.09375 49.648438 C 196.15625 49.78125 195.242188 49.980469 194.355469 50.242188 C 194.207031 50.734375 194.074219 51.277344 193.960938 51.882812 C 193.867188 52.484375 193.820312 53.058594 193.820312 53.605469 C 193.820312 54.792969 194.28125 55.828125 195.203125 56.714844 C 196.144531 57.597656 198.367188 59.070312 201.867188 61.121094 Z M 227.558594 68.667969 C 227.558594 72.585938 228.304688 75.542969 229.789062 77.539062 C 231.277344 79.519531 233.382812 80.507812 236.113281 80.507812 C 237.488281 80.507812 238.777344 80.355469 239.980469 80.054688 C 241.1875 79.734375 242.136719 79.359375 242.832031 78.925781 C 243.453125 77.757812 243.972656 76.335938 244.386719 74.65625 C 244.820312 72.960938 245.035156 71.199219 245.035156 69.375 L 245.035156 50.15625 L 241 49.195312 L 241.5625 45.863281 L 253.871094 45.863281 L 254.4375 49.195312 L 250.429688 50.15625 L 250.429688 68.722656 C 250.429688 74.109375 249.148438 78.125 246.589844 80.761719 C 244.027344 83.398438 240.074219 84.71875 234.730469 84.71875 C 229.328125 84.71875 225.367188 83.503906 222.84375 81.070312 C 220.339844 78.640625 219.089844 75.023438 219.089844 70.222656 L 219.089844 50.15625 L 215.023438 49.195312 L 215.589844 45.863281 L 231.003906 45.863281 L 231.566406 49.195312 L 227.558594 50.15625 Z M 253.816406 80.761719 L 256.640625 79.96875 L 268.863281 45.863281 L 276.289062 45.863281 L 288.230469 79.96875 L 291.027344 80.761719 L 290.460938 84.097656 L 276.515625 84.097656 L 275.953125 80.761719 L 279.675781 79.96875 L 277.363281 73.1875 L 264.574219 73.1875 L 262.203125 79.96875 L 265.929688 80.761719 L 265.363281 84.097656 L 254.378906 84.097656 Z M 266.011719 68.976562 L 275.953125 68.976562 L 271.265625 55.1875 L 270.8125 55.1875 Z M 320.503906 49.226562 L 316.464844 49.988281 L 325.074219 75.5625 L 325.527344 75.5625 L 334.109375 50.015625 L 330.074219 49.226562 L 330.636719 45.863281 L 342.015625 45.863281 L 342.582031 49.226562 L 339.898438 50.074219 L 327.957031 84.097656 L 319.738281 84.097656 L 307.769531 50.074219 L 305.085938 49.226562 L 305.652344 45.863281 L 319.9375 45.863281 Z M 347.296875 50.15625 L 343.257812 49.195312 L 343.824219 45.863281 L 359.210938 45.863281 L 359.773438 49.195312 L 355.765625 50.15625 L 355.765625 79.800781 L 359.773438 80.761719 L 359.210938 84.097656 L 343.824219 84.097656 L 343.257812 80.761719 L 347.296875 79.800781 Z M 380.355469 61.121094 C 384.703125 63.570312 387.699219 65.726562 389.335938 67.59375 C 390.992188 69.4375 391.820312 71.691406 391.820312 74.347656 C 391.820312 77.644531 390.445312 80.195312 387.699219 82.003906 C 384.949219 83.8125 381.195312 84.71875 376.433594 84.71875 C 374.25 84.71875 372.152344 84.558594 370.136719 84.238281 C 368.121094 83.917969 366.410156 83.484375 365 82.9375 L 364.40625 75.054688 L 369.121094 74.347656 L 371.492188 79.914062 C 372.265625 80.101562 373.109375 80.253906 374.03125 80.367188 C 374.972656 80.460938 375.914062 80.507812 376.855469 80.507812 C 377.855469 80.507812 378.851562 80.429688 379.847656 80.28125 C 380.847656 80.128906 381.730469 79.941406 382.503906 79.714844 C 382.730469 79.261719 382.925781 78.699219 383.09375 78.019531 C 383.265625 77.34375 383.347656 76.671875 383.347656 76.015625 C 383.347656 74.507812 382.757812 73.1875 381.570312 72.058594 C 380.386719 70.925781 378.21875 69.421875 375.078125 67.535156 C 370.277344 64.765625 367.210938 62.535156 365.875 60.839844 C 364.539062 59.144531 363.859375 57.15625 363.839844 54.878906 C 363.839844 51.824219 365.167969 49.460938 367.820312 47.785156 C 370.492188 46.089844 374.171875 45.242188 378.859375 45.242188 C 380.761719 45.242188 382.625 45.371094 384.449219 45.636719 C 386.296875 45.898438 387.933594 46.257812 389.363281 46.710938 L 389.957031 54.90625 L 385.578125 55.527344 L 383.238281 49.960938 C 382.503906 49.789062 381.710938 49.667969 380.863281 49.59375 C 380.039062 49.5 379.21875 49.453125 378.410156 49.453125 C 377.46875 49.453125 376.527344 49.515625 375.585938 49.648438 C 374.644531 49.78125 373.730469 49.980469 372.847656 50.242188 C 372.695312 50.734375 372.566406 51.277344 372.453125 51.882812 C 372.359375 52.484375 372.3125 53.058594 372.3125 53.605469 C 372.3125 54.792969 372.773438 55.828125 373.695312 56.714844 C 374.636719 57.597656 376.855469 59.070312 380.355469 61.121094 Z M 392.78125 80.761719 L 395.601562 79.96875 L 407.828125 45.863281 L 415.253906 45.863281 L 427.195312 79.96875 L 429.992188 80.761719 L 429.425781 84.097656 L 415.480469 84.097656 L 414.914062 80.761719 L 418.640625 79.96875 L 416.324219 73.1875 L 403.535156 73.1875 L 401.164062 79.96875 L 404.890625 80.761719 L 404.328125 84.097656 L 393.34375 84.097656 Z M 404.976562 68.976562 L 414.914062 68.976562 L 410.226562 55.1875 L 409.777344 55.1875 Z M 398.226562 41.058594 C 398.226562 38.667969 398.859375 36.875 400.121094 35.691406 C 401.382812 34.484375 403.101562 33.882812 405.289062 33.882812 C 406.53125 33.882812 407.78125 34.078125 409.042969 34.476562 C 410.304688 34.851562 411.507812 35.273438 412.65625 35.746094 C 413.824219 36.21875 414.886719 36.652344 415.847656 37.046875 C 416.824219 37.421875 417.644531 37.613281 418.300781 37.613281 C 419.113281 37.613281 419.75 37.339844 420.222656 36.792969 C 420.691406 36.226562 420.929688 35.371094 420.929688 34.21875 L 424.796875 33.9375 L 424.796875 35.972656 C 424.796875 38.214844 424.210938 39.976562 423.046875 41.257812 C 421.898438 42.519531 420.242188 43.148438 418.078125 43.148438 C 416.984375 43.148438 415.789062 42.960938 414.492188 42.585938 C 413.191406 42.1875 411.914062 41.757812 410.652344 41.285156 C 409.410156 40.8125 408.25 40.390625 407.179688 40.011719 C 406.105469 39.617188 405.25 39.421875 404.609375 39.421875 C 404.175781 39.421875 403.789062 39.457031 403.453125 39.53125 C 403.132812 39.609375 402.847656 39.75 402.605469 39.957031 C 402.359375 40.164062 402.171875 40.445312 402.039062 40.804688 C 401.925781 41.164062 401.871094 41.625 401.871094 42.1875 L 398.226562 42.472656 Z M 448.878906 84.71875 C 443.175781 84.71875 438.882812 83.425781 436.003906 80.847656 C 433.125 78.265625 431.683594 74.402344 431.683594 69.261719 L 431.683594 67.027344 C 431.683594 59.605469 433.246094 54.125 436.371094 50.582031 C 439.496094 47.019531 444.03125 45.242188 449.980469 45.242188 C 455.664062 45.242188 459.964844 46.53125 462.882812 49.113281 C 465.820312 51.691406 467.289062 55.566406 467.289062 60.726562 L 467.289062 62.929688 C 467.289062 70.183594 465.753906 75.628906 462.683594 79.261719 C 459.617188 82.898438 455.015625 84.71875 448.878906 84.71875 Z M 458.816406 61.96875 C 458.816406 57.882812 457.980469 54.773438 456.304688 52.644531 C 454.648438 50.515625 452.191406 49.453125 448.933594 49.453125 C 447.523438 49.453125 446.179688 49.640625 444.898438 50.015625 C 443.636719 50.394531 442.609375 50.84375 441.820312 51.371094 C 441.480469 52.578125 441.113281 54.398438 440.71875 56.828125 C 440.34375 59.257812 440.15625 61.726562 440.15625 64.230469 L 440.15625 67.988281 C 440.15625 71.925781 441.066406 74.996094 442.894531 77.199219 C 444.738281 79.40625 447.128906 80.507812 450.0625 80.507812 C 451.570312 80.507812 452.972656 80.300781 454.269531 79.886719 C 455.589844 79.472656 456.558594 79.027344 457.179688 78.558594 C 457.574219 77.144531 457.941406 75.230469 458.28125 72.820312 C 458.636719 70.390625 458.816406 68.027344 458.816406 65.726562 Z M 458.816406 61.96875 "/>
</g>
</svg>
